<?xml version="1.0" encoding="utf-8"?>
<!-- Generator: Adobe Illustrator 21.0.2, SVG Export Plug-In . SVG Version: 6.00 Build 0)  -->
<svg version="1.1" id="Capa_1" xmlns="http://www.w3.org/2000/svg" xmlns:xlink="http://www.w3.org/1999/xlink" x="0px" y="0px"
	 viewBox="0 0 205.8 125.4" style="enable-background:new 0 0 205.8 125.4;" xml:space="preserve">
<style type="text/css">
	.st0{fill:#F46C0F;}
</style>
<g>
	<g>
		<g>
			<path class="st0" d="M129.5,71.9V82h5.1V66.8H76.3V46c0-0.7-0.2-1.3-0.7-1.8c-0.5-0.5-1.1-0.8-1.8-0.8s-1.3,0.3-1.8,0.8
				c-0.5,0.5-0.7,1.1-0.7,1.8v36h5.1V71.9H129.5z"/>
			<path class="st0" d="M84.3,56.4c1.3,0,2.4-0.5,3.3-1.4c1-0.9,1.4-2,1.4-3.3c0-1.3-0.5-2.4-1.4-3.3s-2.1-1.4-3.3-1.4
				c-1.3,0-2.4,0.5-3.3,1.4s-1.4,2-1.4,3.3c0,1.3,0.5,2.4,1.4,3.3C81.9,55.9,83,56.4,84.3,56.4z"/>
			<path class="st0" d="M134.6,62.9v-6.2c0-1-0.3-1.8-1.1-2.4c-0.7-0.6-1.6-1-2.7-1.2l-36.8-3.6h-0.2c-0.7,0-1.2,0.2-1.7,0.7
				c-0.5,0.5-0.7,1-0.7,1.7v7.2h-9.4c-1.6,0-2.4,0.6-2.4,1.9c0,1.3,0.8,1.9,2.4,1.9H134.6z"/>
		</g>
	</g>
</g>
</svg>
