<?xml version="1.0" encoding="utf-8"?>
<!-- Generator: Adobe Illustrator 21.0.2, SVG Export Plug-In . SVG Version: 6.00 Build 0)  -->
<svg version="1.1" id="Capa_1" xmlns="http://www.w3.org/2000/svg" xmlns:xlink="http://www.w3.org/1999/xlink" x="0px" y="0px"
	 viewBox="0 0 205.8 125.4" style="enable-background:new 0 0 205.8 125.4;" xml:space="preserve">
<style type="text/css">
	.st0{fill:#F46C0F;}
</style>
<g>
	<path class="st0" d="M144.4,69.9c-0.3,0.8-0.4,1.6-0.7,2.3c-0.8,2-2.3,3.1-4.5,3.6c0.3-3.6-1-6.3-3.9-8.3c-1.7-1.2-3.7-1.6-5.8-1.4
		c-4.1,0.5-8.3,4.5-7.4,10.3c-11.6,0.3-23.2,0.5-34.9,0.8c1-4.8-0.5-8.4-4.9-10.5c-3.1-1.4-6.2-1-8.8,1.3c-2.9,2.5-3.7,5.7-2.7,9.5
		c-0.6,0-1.3,0.1-1.9,0.1c-1.6,0.2-3.1,0.1-4.6-0.3c-1.3-0.3-2.3-1.2-2.9-2.4c0-2.8,0-5.5,0-8.2c0.2-0.4,0.4-0.8,0.5-1.2
		c0.2-1.2,0.7-2.3,1.6-3c0.3-0.3,0.4-0.5,0.6-0.9c0.8-1.4,2.2-2.2,3.6-2.8c2.7-1.3,5.6-1.7,8.4-2.4c1.4-0.3,2.9-0.7,4.3-1
		c1.6-0.3,2.8-1.6,4.1-2.5c3.3-2.6,6.9-4.8,10.8-6.3c3.5-1.5,7-2.4,10.8-2.7c2-0.2,4.1-0.1,6.1,0c5.1,0.2,10.2,0.9,15.3,1.7
		c1.9,0.3,3.8,0.6,5.7,1c0.9,0.2,1.5,0.7,1.5,1.7c0,0.8,0.3,1.1,0.8,1.5c1.3,1.1,2.6,2.3,3.9,3.6c0.1,0.1,0.3,0.3,0.3,0.3
		c0.3,0.7,0.7,1.1,1.6,1c0.6-0.1,1,0.4,1.1,1c0.3,1.1,0.5,2.3,0.7,3.4c0.3,1.6,0.3,3.3,0.5,4.9c0.2,1.1,0.6,2.3,1,3.4
		C144.4,68.1,144.4,69,144.4,69.9z"/>
	<path class="st0" d="M78.9,81.8c-4,0-7.3-3.2-7.3-7.2c0-4.1,3.3-7.4,7.3-7.4c4,0,7.2,3.3,7.3,7.3S82.9,81.8,78.9,81.8z"/>
	<path class="st0" d="M130.8,81.8c-3.9,0.2-7.2-2.8-7.5-6.6c-0.3-4.3,2.7-7.7,6.9-7.9c3.9-0.2,7.5,2.7,7.5,7.1
		C137.9,78.1,135.1,81.7,130.8,81.8z"/>
</g>
</svg>
