<?xml version="1.0" encoding="utf-8"?>
<!-- Generator: Adobe Illustrator 21.0.2, SVG Export Plug-In . SVG Version: 6.00 Build 0)  -->
<svg version="1.1" id="Capa_1" xmlns="http://www.w3.org/2000/svg" xmlns:xlink="http://www.w3.org/1999/xlink" x="0px" y="0px"
	 viewBox="0 0 205.8 125.4" style="enable-background:new 0 0 205.8 125.4;" xml:space="preserve">
<style type="text/css">
	.st0{fill:#F46C0F;}
</style>
<g>
	<path class="st0" d="M135.1,85.4c-1.2-0.3-2.6-0.3-3.7-0.8c-2.9-1.2-5.8-1.3-8.7,0.1c-2.3,1.1-4.7,1.1-7.1,0.1
		c-3.1-1.4-6.1-1.5-9.2,0c-2.3,1.1-4.8,1-7.1-0.1c-3-1.4-5.9-1.3-8.8,0c-2.5,1.1-5,1.1-7.5-0.1c-2.7-1.2-5.4-1.2-8.2-0.1
		c-1.3,0.5-2.8,0.6-4.1,0.9c0-1.9,0-3.8,0-5.7c1.4-0.3,2.8-0.5,4.1-1c2.7-1.1,5.3-1.2,7.9,0c2.8,1.3,5.5,1.3,8.2,0
		c2.5-1.2,5.2-1.2,7.8,0c2.8,1.3,5.5,1.3,8.4,0c2.5-1.2,5.2-1.1,7.8,0c2.8,1.3,5.5,1.3,8.3,0c2.7-1.2,5.3-1.1,8,0
		c1.3,0.5,2.6,0.7,4,1C135.1,81.6,135.1,83.5,135.1,85.4z"/>
	<path class="st0" d="M81.4,73c7.4-4.1,14.8-8.1,22.2-12.2c-0.7-1.3-1.4-2.6-2.1-3.9c-1.3-2.3-2.6-4.6-3.9-7c-1.3-2.4,0-5.5,2.7-6
		c7.6-1.4,15.2-2.7,22.8-4c1.9-0.3,4,1.3,4.5,3.2c0.5,2.3-0.7,4.5-3,5.1c-2.9,0.7-5.9,1.2-8.8,1.7c-2.1,0.4-4.3,0.8-6.7,1.3
		c4.2,7.6,8.4,15.1,12.6,22.7c-2.1,0.9-4.2,0.8-6.1-0.1c-3.2-1.5-6.3-1.5-9.5,0c-2.2,1-4.6,0.9-6.8-0.1c-3.1-1.4-6.1-1.4-9.2,0.1
		C87.2,75.2,84.3,74.4,81.4,73z"/>
	<path class="st0" d="M118.1,61.1c0-4.3,3.3-7.5,7.7-7.5c4.3,0,7.6,3.4,7.6,7.6c0,4.2-3.5,7.5-7.7,7.5
		C121.3,68.7,118.1,65.5,118.1,61.1z"/>
</g>
</svg>
