<?xml version="1.0" encoding="utf-8"?>
<!-- Generator: Adobe Illustrator 21.0.2, SVG Export Plug-In . SVG Version: 6.00 Build 0)  -->
<svg version="1.1" id="Capa_1" xmlns="http://www.w3.org/2000/svg" xmlns:xlink="http://www.w3.org/1999/xlink" x="0px" y="0px"
	 viewBox="0 0 205.8 125.4" style="enable-background:new 0 0 205.8 125.4;" xml:space="preserve">
<style type="text/css">
	.st0{fill:#F46C0F;}
</style>
<g>
	<path class="st0" d="M97.8,76.3c-1.2-0.4-2.3-0.7-3.4-1.1c-4-1.4-7.4-3.7-10.2-6.8c-2.8-3.1-4.5-6.8-5.6-10.8
		c-0.8-2.9-1.1-5.9-1.1-8.9c0-0.1,0-0.2,0-0.4c0.3,0,0.5,0,0.8,0c4.9,0.2,9.5,1.4,13.7,3.9c3.8,2.2,6.6,5.3,8.5,9.2
		c0.1,0.2,0.1,0.4,0,0.7c-1.9,4-2.8,8.1-2.7,12.5C97.7,75.1,97.7,75.6,97.8,76.3z"/>
	<path class="st0" d="M100.6,77.2c0-1.3-0.1-2.6,0-3.9c0.2-3.6,1-7.1,2.6-10.3c2.9-6,7.5-10.1,13.7-12.4c3.4-1.3,6.9-1.9,10.5-2.2
		c0.2,0,0.5,0,0.7-0.1c0.1,0.7,0.2,1.3,0.2,2c0.2,5-0.6,9.8-3,14.3c-2.6,4.9-6.5,8.4-11.6,10.4c-3.1,1.2-6.4,1.9-9.8,2.1
		c-1,0.1-2,0.1-2.9,0.1C100.9,77.2,100.8,77.2,100.6,77.2z M105,74.1c2.6-0.3,5-0.8,7.3-1.6c4.4-1.6,7.8-4.4,10.1-8.5
		c2.1-3.8,3-7.9,3-12.3c0-0.1,0-0.1,0-0.2c-0.1,0-0.1,0-0.2,0c-2.1,0.3-4.2,0.7-6.2,1.3c-4,1.3-7.5,3.4-10.2,6.6
		c-2.6,3-4.2,6.6-5,10.5c-0.1,0.4-0.2,0.9-0.2,1.4c0.4-0.3,0.6-0.7,0.9-1c2.8-3.4,5.8-6.7,9.3-9.5c1.7-1.4,3.5-2.6,5.6-3.4
		c0.8-0.3,1.7-0.6,2.7-0.7C114.8,60.9,109.2,66.7,105,74.1z"/>
</g>
</svg>
