<?xml version="1.0" encoding="utf-8"?>
<!-- Generator: Adobe Illustrator 21.0.2, SVG Export Plug-In . SVG Version: 6.00 Build 0)  -->
<svg version="1.1" id="Capa_1" xmlns="http://www.w3.org/2000/svg" xmlns:xlink="http://www.w3.org/1999/xlink" x="0px" y="0px"
	 viewBox="0 0 205.8 125.4" style="enable-background:new 0 0 205.8 125.4;" xml:space="preserve">
<style type="text/css">
	.st0{fill:#F46C0F;}
</style>
<g>
	<path class="st0" d="M101.3,35.9c1.1,0,2.1,0,3.2,0c0.2,0.1,0.3,0.2,0.5,0.2c6.2,0.8,11.5,5.4,13.1,11.4c1.7,6.2-0.5,12.7-5.6,16.6
		c-0.4,0.3-0.8,0.6-1.3,0.9c0.3,0.1,0.4,0.2,0.6,0.3c5.7,2.3,9.9,6.1,12.6,11.6c0.9,1.9,1.4,3.9,2.2,5.9c-0.1,0.1-0.3,0.4-0.4,0.4
		c-1.2,0-2.4,0-3.6,0c0-0.2,0-0.4-0.1-0.5c-3.9-15.1-22.5-20.4-33.7-9.6c-2.9,2.8-4.9,6.1-5.6,10.1c-1.2,0-2.4,0-3.6,0
		c-0.1,0-0.3-0.3-0.4-0.4c0.1-0.1,0.1-0.2,0.2-0.3c1.9-8.1,6.8-13.8,14.4-17.1c0.2-0.1,0.4-0.2,0.7-0.3c-0.3-0.2-0.4-0.3-0.6-0.5
		c-5.2-3.7-7.4-8.8-6.6-15.1c0.9-6.5,4.7-10.8,10.9-12.9C99.2,36.3,100.3,36.2,101.3,35.9z M102.9,63.5c6.5,0,11.8-5.3,11.8-11.7
		c0-6.6-5.3-11.9-11.8-11.9c-6.5,0-11.9,5.3-11.9,11.7C91,58.2,96.3,63.6,102.9,63.5z"/>
</g>
</svg>
