<?xml version="1.0" encoding="utf-8"?>
<!-- Generator: Adobe Illustrator 21.0.2, SVG Export Plug-In . SVG Version: 6.00 Build 0)  -->
<svg version="1.1" id="Capa_1" xmlns="http://www.w3.org/2000/svg" xmlns:xlink="http://www.w3.org/1999/xlink" x="0px" y="0px"
	 viewBox="0 0 540.2 540.2" style="enable-background:new 0 0 540.2 540.2;" xml:space="preserve">
<style type="text/css">
	.st0{fill:#010002;}
</style>
<g>
	<g>
		<g>
			<path class="st0" d="M485.1,344.1v82h41v-123h-471v-168c0-5.3-2-10.2-6-14.5c-4-4.3-8.8-6.5-14.5-6.5s-10.5,2.2-14.5,6.5
				s-6,9.2-6,14.5v291h41v-82H485.1z"/>
			<path class="st0" d="M119.6,219.1c10.3,0,19.3-3.7,27-11c7.7-7.3,11.5-16.2,11.5-26.5c0-10.3-3.8-19.2-11.5-26.5
				c-7.7-7.3-16.7-11-27-11s-19.2,3.7-26.5,11s-11,16.2-11,26.5s3.7,19.2,11,26.5C100.4,215.4,109.3,219.1,119.6,219.1z"/>
			<path class="st0" d="M526.1,272.1v-50c0-8-2.8-14.5-8.5-19.5c-5.7-5-12.8-8.2-21.5-9.5l-297-29h-2c-5.3,0-9.8,1.8-13.5,5.5
				s-5.5,8.2-5.5,13.5v58h-76c-12.7,0-19,5.2-19,15.5s6.3,15.5,19,15.5H526.1z"/>
		</g>
	</g>
</g>
</svg>
