<?xml version="1.0" encoding="utf-8"?>
<!-- Generator: Adobe Illustrator 21.0.2, SVG Export Plug-In . SVG Version: 6.00 Build 0)  -->
<svg version="1.1" id="Capa_1" xmlns="http://www.w3.org/2000/svg" xmlns:xlink="http://www.w3.org/1999/xlink" x="0px" y="0px"
	 viewBox="0 0 205.8 125.4" style="enable-background:new 0 0 205.8 125.4;" xml:space="preserve">
<style type="text/css">
	.st0{fill:#F46C0F;}
</style>
<g>
	<path class="st0" d="M100.3,66.8c-2.7,0.8-5.2,1.7-7.8,2.4c-1.6,0.5-3.8-1.4-3.9-3.2c-0.1-1.1,0.5-2,0.9-2.9
		c1.3-3.2,2.7-6.4,4.1-9.5c0.6-1.3,1.6-2,3-2c4.2,0,8.4,0,12.6,0c1.3,0,2.4,0.6,2.9,1.8c1.6,3.7,3.2,7.4,4.7,11.1
		c0.8,2-0.1,3.8-2.1,4.4c-5.2,1.6-10.3,3.1-15.5,4.6c-2.1,0.6-4-0.6-4.3-2.7c-0.1-0.5,0-0.7,0.6-0.9c5.1-1.6,10.1-3.2,15.2-4.7
		c0.9-0.3,1.1-0.7,0.7-1.5c-1-2.3-1.9-4.5-2.9-6.8c-0.3-0.6-0.8-0.9-1.3-0.6c-0.4,0.3-0.5,0.7-0.3,1.2c0.8,1.9,1.7,3.9,2.5,5.8
		c0.1,0.1,0.1,0.3,0.2,0.4c-1.2,0.4-2.3,0.7-3.4,1.1c-0.3,0.1-0.7,0.2-1,0.3c-1.5,0.7-3,0.6-4.5,0c-1.5-0.6-3.1-0.9-4.7-1.4
		c0.7-1.6,1.3-3.1,2-4.6c0.3-0.6,0.5-1.2,0.8-1.8c0.2-0.5,0.1-0.9-0.4-1.1c-0.4-0.2-0.9,0-1.1,0.5c-1,2.3-2,4.7-3,7.1
		c-0.3,0.6,0,1.1,0.6,1.3C96.7,65.7,98.4,66.2,100.3,66.8z"/>
	<path class="st0" d="M102.9,50c-3.5,0-6.3-2.8-6.3-6.3c0-3.5,2.8-6.3,6.4-6.3c3.5,0,6.3,2.8,6.3,6.3C109.2,47.2,106.4,50,102.9,50z
		"/>
	<path class="st0" d="M104.9,73.6c1.6-0.5,3.1-0.9,4.6-1.4c1.2-0.4,2.4-0.6,3.5-1.1c1.3-0.6,3,0.9,2.9,2.1c0,0.6-0.1,1.2-0.2,1.8
		c-0.6,4-1.1,8-1.7,12c-0.1,0.9-0.3,1-1.2,1c-1.4,0-2.7,0-4.1,0c-0.8,0-1.1-0.3-1-1.1c0.3-3.6,0.6-7.2,1-10.8c0-0.4,0-0.5-0.4-0.7
		c-1-0.5-2-1.1-3-1.6C105.2,73.8,105.1,73.7,104.9,73.6z"/>
	<path class="st0" d="M93.3,70.6c0.3,2.8,1.7,4.3,4,4.8c-0.1,0.3-0.2,0.7-0.2,1c0.3,3.6,0.6,7.1,0.9,10.7c0.1,0.8-0.2,1.1-1,1.1
		c-1.4,0-2.8,0-4.2,0c-0.9,0-1.1-0.1-1.2-1c-0.5-3.5-1-7-1.5-10.5c-0.1-0.9-0.3-1.9-0.4-2.8c-0.1-1.2,0.4-2.1,1.6-2.6
		C92,71,92.6,70.8,93.3,70.6z"/>
	<path class="st0" d="M88.6,47.2c0,1.1-0.3,2.1-0.9,3.1c-1,1.7-1,3.5,0,5.2c0.5,0.9,0.9,2,0.9,3.1c0,0.6-0.3,0.9-0.8,0.9
		c-0.5,0-0.7-0.3-0.8-0.9c-0.2-0.8-0.3-1.7-0.7-2.4c-1.2-2.3-1.2-4.5,0-6.8c0.9-1.6,0.9-3.3,0-4.9c-0.5-0.9-0.9-2-0.9-3
		c0-0.6,0.2-1,0.7-1.1c0.5,0,0.8,0.3,0.8,1c0,0.9,0.4,1.7,0.8,2.5C88.3,45,88.6,46,88.6,47.2z"/>
	<path class="st0" d="M120.4,52.7c0,1-0.1,2.1-0.6,3c-0.5,1-1,2-1,3.1c0,0.4-0.3,0.7-0.8,0.7c-0.5,0-0.7-0.3-0.8-0.8
		c0-1.1,0.2-2.1,0.7-3c1.1-1.9,1.1-3.7,0-5.7c-1.1-2-1-4,0-6c0.5-0.9,0.9-1.8,0.9-2.8c0-0.5,0.3-0.8,0.8-0.8c0.5,0,0.8,0.3,0.8,0.9
		c0,1.1-0.3,2.2-0.9,3.1c-1,1.7-1,3.5,0,5.2C120,50.6,120.3,51.6,120.4,52.7z"/>
	<path class="st0" d="M79.1,57.7c0-1.2,0.2-2.2,0.8-3.1c1.1-1.8,1.1-3.6,0-5.4c-0.5-0.9-0.8-1.9-0.8-3c0-0.5,0.2-0.9,0.7-0.9
		c0.5-0.1,0.7,0.3,0.8,0.9c0.2,0.8,0.3,1.7,0.7,2.4c1.1,2.2,1.2,4.4,0,6.5c-1,1.7-1,3.5,0,5.2c0.5,0.9,0.8,1.9,0.8,2.9
		c0,0.6-0.2,1-0.7,1c-0.5,0-0.8-0.3-0.8-0.9c0-0.9-0.3-1.7-0.7-2.4C79.3,59.9,79,58.8,79.1,57.7z"/>
	<path class="st0" d="M126.7,57.6c0,1.1-0.2,2.2-0.8,3.2c-0.5,0.8-0.8,1.6-0.8,2.5c0,0.6-0.3,0.9-0.8,0.9c-0.5,0-0.8-0.4-0.7-1
		c0-1.1,0.3-2,0.8-2.9c1-1.8,1-3.5,0-5.3c-1.2-2.1-1.2-4.3,0-6.4c0.4-0.8,0.7-1.6,0.8-2.5c0-0.5,0.3-0.9,0.8-0.8
		c0.5,0.1,0.7,0.4,0.7,0.9c0,1.1-0.3,2.1-0.8,3c-1,1.8-1,3.5,0,5.3C126.5,55.6,126.7,56.4,126.7,57.6z"/>
	<path class="st0" d="M89.2,70.7c-0.3,0.5-0.5,0.9-0.7,1.3c-0.1,0.1-0.3,0.2-0.4,0.2c-3.3,0-6.5,0-9.8,0c-0.5,0-0.8-0.2-0.8-0.8
		c0-0.5,0.3-0.8,0.8-0.8C81.9,70.7,85.5,70.7,89.2,70.7z"/>
	<path class="st0" d="M116.6,70.7c2.6,0,5.1,0,7.7,0c1.1,0,2.1,0,3.2,0c0.6,0,0.9,0.3,0.9,0.8c0,0.5-0.4,0.8-0.9,0.8
		c-3.2,0-6.4,0-9.6,0c-0.2,0-0.4-0.1-0.5-0.2C117,71.6,116.8,71.2,116.6,70.7z"/>
</g>
</svg>
